SplineFontDB: 3.2
FontName: ycaxen-light
FullName: ycaxen-light
FamilyName: ycaxen
Weight: Light
Copyright: 
Version: 2
ItalicAngle: 0
UnderlinePosition: 0
UnderlineWidth: 0
Ascent: 819
Descent: 205
InvalidEm: 0
sfntRevision: 0x00020000
woffMajor: 2
woffMinor: 0
LayerCount: 2
Layer: 0 0 "+gMyXYgAA" 1
Layer: 1 0 "+Uk2XYgAA" 0
HasVMetrics: 1
XUID: [1021 765 1012425290 9759]
StyleMap: 0x0040
FSType: 8
OS2Version: 3
OS2_WeightWidthSlopeOnly: 0
OS2_UseTypoMetrics: 0
CreationTime: 1725189274
ModificationTime: 1725195565
PfmFamily: 17
TTFWeight: 400
TTFWidth: 5
LineGap: 92
VLineGap: 92
Panose: 2 0 3 3 0 0 0 0 0 0
OS2TypoAscent: 819
OS2TypoAOffset: 0
OS2TypoDescent: -205
OS2TypoDOffset: 0
OS2TypoLinegap: 92
OS2WinAscent: 1000
OS2WinAOffset: 0
OS2WinDescent: 169
OS2WinDOffset: 0
HheadAscent: 1000
HheadAOffset: 0
HheadDescent: -169
HheadDOffset: 0
OS2SubXSize: 665
OS2SubYSize: 716
OS2SubXOff: 0
OS2SubYOff: 143
OS2SupXSize: 665
OS2SupYSize: 716
OS2SupXOff: 0
OS2SupYOff: 491
OS2StrikeYSize: 51
OS2StrikeYPos: 265
OS2CapHeight: 554
OS2Vendor: 'PfEd'
OS2CodePages: 00000001.00000000
OS2UnicodeRanges: 00000001.00000000.00000000.00000000
MarkAttachClasses: 1
DEI: 91125
LangName: 1033 "" "" "" "FontForge 2.0 : ycaxen-light : 1-9-2024" "" "Version 2"
Encoding: UnicodeBmp
UnicodeInterp: none
NameList: AGL For New Fonts
DisplaySize: -48
AntiAlias: 1
FitToEm: 0
WinInfo: 0 23 7
BeginPrivate: 6
BlueValues 23 [-20 0 554 571 683 693]
BlueShift 1 0
StdHW 4 [29]
StdVW 4 [36]
StemSnapH 33 [5 22 29 34 40 46 67 142 202 226]
StemSnapV 33 [2 31 36 41 45 49 67 125 228 290]
EndPrivate
BeginChars: 65536 39

StartChar: .notdef
Encoding: 0 0 0
Width: 1000
GlyphClass: 1
Flags: MW
HStem: 0 1000<0 1000 0 1000>
VStem: 0 1000<0 1000 0 1000>
LayerCount: 2
Fore
SplineSet
0 0 m 1
 0 1000 l 1
 1000 1000 l 1
 1000 0 l 1
 0 0 l 1
EndSplineSet
Validated: 1
EndChar

StartChar: exclam
Encoding: 33 33 2
Width: 334
GlyphClass: 2
Flags: MW
VStem: 29.8398 36.8438<112.938 577.955 112.938 577.955> 267.156 36.8438<-61.8496 644.502 -140.664 673.479 -140.664 673.479>
LayerCount: 2
Fore
SplineSet
267.15625 673.478515625 m 1
 304 644.501953125 l 1
 304 -140.6640625 l 1
 143.625 -13.3359375 l 1
 92.052734375 44.87890625 l 1
 267.15625 -61.849609375 l 1
 267.15625 673.478515625 l 1
29.83984375 577.955078125 m 1
 66.68359375 577.955078125 l 1
 66.68359375 112.9375 l 1
 29.83984375 112.9375 l 1
 29.83984375 577.955078125 l 1
EndSplineSet
Validated: 524289
EndChar

StartChar: quotedbl
Encoding: 34 34 3
Width: 288
GlyphClass: 2
Flags: MW
HStem: 491.443 202.408<29.9688 100.133 100.133 132.369>
VStem: 29.9688 228.031<491.443 693.502>
LayerCount: 2
Fore
SplineSet
100.1328125 693.8515625 m 1
 155.599609375 693.501953125 l 1
 54.28125 521.9453125 l 1
 29.96875 491.443359375 l 1
 100.1328125 693.8515625 l 1
202.533203125 693.8515625 m 1
 258 693.501953125 l 1
 156.681640625 521.9453125 l 1
 132.369140625 491.443359375 l 1
 202.533203125 693.8515625 l 1
EndSplineSet
Validated: 524289
EndChar

StartChar: question
Encoding: 63 63 4
Width: 585
GlyphClass: 2
Flags: MW
HStem: 68.2881 38.9053<298.24 406.258> 468.761 35.0381<55.5859 373.569 29.7754 379.372 55.5859 55.5859>
VStem: 160.139 40.1875<116.784 148.812> 523.767 2.02246 523.781 31.2188<174.498 263.342>
LayerCount: 2
Fore
SplineSet
525.7890625 354.133789062 m 1xf0
 544.510742188 298.2265625 555 237.301757812 555 185.743164062 c 0
 555 163.252929688 553.00390625 142.543945312 548.82421875 124.811523438 c 0
 523.608398438 72.4677734375 497.021484375 68.2880859375 315.494140625 68.2880859375 c 0
 280.986328125 68.2880859375 240.87890625 68.4384765625 194.118164062 68.4384765625 c 0
 170.05859375 68.4384765625 160.138671875 80.7548828125 160.138671875 101.067382812 c 0
 160.138671875 196.557617188 379.372070312 468.760742188 379.372070312 468.760742188 c 1
 55.5859375 468.760742188 l 1
 29.775390625 503.798828125 l 1
 373.569335938 503.798828125 l 2
 409.63671875 502.8203125 423.032226562 494.802734375 423.032226562 481.990234375 c 0
 423.032226562 476.204101562 420.299804688 469.439453125 415.689453125 461.904296875 c 0
 401.505859375 438.719726562 200.326171875 193.872070312 200.326171875 119.119140625 c 0
 200.326171875 114.448242188 201.111328125 110.44140625 202.77734375 107.193359375 c 2
 438.59375 107.193359375 l 2
 439.475585938 107.177734375 440.349609375 107.170898438 441.213867188 107.170898438 c 0
 521.068359375 107.170898438 523.78125 173.528320312 523.78125 260.18359375 c 0xe8
 523.78125 266.500976562 523.766601562 272.926757812 523.766601562 279.44140625 c 0
 523.766601562 303.416015625 523.961914062 328.610351562 525.7890625 354.133789062 c 1xf0
EndSplineSet
Validated: 524289
EndChar

StartChar: hyphen
Encoding: 45 45 5
Width: 367
GlyphClass: 2
Flags: MW
HStem: 253.104 46.6055<29.7988 337 29.7988 337>
VStem: 29.7988 307.201<253.104 299.71 253.104 299.71>
LayerCount: 2
Fore
SplineSet
29.798828125 299.709960938 m 1
 337 299.709960938 l 1
 337 253.104492188 l 1
 29.798828125 253.104492188 l 1
 29.798828125 299.709960938 l 1
EndSplineSet
Validated: 524289
EndChar

StartChar: period
Encoding: 46 46 6
Width: 128
GlyphClass: 2
Flags: MW
HStem: -0.132812 67.584<54.8828 73.5332>
VStem: 30.416 67.584<24.334 42.9844>
LayerCount: 2
Fore
SplineSet
98 33.6591796875 m 0
 98 15.0087890625 82.8583984375 -0.1328125 64.2080078125 -0.1328125 c 0
 45.5576171875 -0.1328125 30.416015625 15.0087890625 30.416015625 33.6591796875 c 0
 30.416015625 52.3095703125 45.5576171875 67.451171875 64.2080078125 67.451171875 c 0
 82.8583984375 67.451171875 98 52.3095703125 98 33.6591796875 c 0
EndSplineSet
Validated: 524289
EndChar

StartChar: comma
Encoding: 44 44 7
Width: 186
GlyphClass: 2
Flags: MW
HStem: -101.658 226.635<30.3691 156>
VStem: 30.3691 125.631
LayerCount: 2
Fore
SplineSet
156 124.9765625 m 1
 54.681640625 -71.15625 l 1
 30.369140625 -101.658203125 l 1
 100.534179688 100.751953125 l 1
 156 124.9765625 l 1
EndSplineSet
Validated: 524289
EndChar

StartChar: A
Encoding: 65 65 8
Width: 473
GlyphClass: 2
Flags: MW
HStem: 0.894531 31.5547<78.1152 177.476> 322.323 29.502<78.1152 174.728 78.1152 174.728 174.728 182.139> 524.928 29.502<78.1152 395.342 78.1152 78.1152>
VStem: 38.208 39.9072<0.894531 322.323> 395.195 42.8047<139.364 211.825>
LayerCount: 2
Fore
SplineSet
35.4609375 554.4296875 m 1
 395.341796875 554.4296875 l 1
 395.341796875 524.927734375 l 1
 78.115234375 524.927734375 l 1
 78.115234375 351.825195312 l 1
 174.727539062 351.825195312 l 2
 351.252929688 351.825195312 438 264.65625 438 177.206054688 c 0
 438 89.1923828125 350.12890625 0.89453125 177.475585938 0.89453125 c 2
 38.2080078125 0.89453125 l 1
 35.4609375 554.4296875 l 1
78.115234375 322.323242188 m 1
 78.115234375 32.44921875 l 1
 184.44921875 32.44921875 l 2
 325.928710938 32.44921875 395.1953125 103.491210938 395.1953125 175.236328125 c 0
 395.1953125 248.4140625 323.133789062 322.323242188 182.138671875 322.323242188 c 2
 78.115234375 322.323242188 l 1
EndSplineSet
Validated: 524289
EndChar

StartChar: B
Encoding: 66 66 9
Width: 514
GlyphClass: 2
Flags: MW
HStem: 0.802734 23.0713<206.549 307.339 206.549 318.264> 549.298 22.877<237.162 237.162 237.162 307.339>
VStem: 34.8887 49.7998<215.523 361.429> 237.162 39.5645<572.175 749.891 572.156 749.891> 429.2 49.7998<217.571 360.557 212.545 363.794>
CounterMasks: 1 38
LayerCount: 2
Fore
SplineSet
237.162109375 749.890625 m 1
 276.7265625 749.890625 l 1
 276.7265625 572.15625 l 1
 389.3515625 558.749023438 479 432.479492188 479 288.633789062 c 0
 479 136.456054688 379.583007812 0.802734375 256.944335938 0.802734375 c 0
 134.33203125 0.802734375 34.888671875 134.387695312 34.888671875 288.534179688 c 0
 34.888671875 434.323242188 124.515625 558.955078125 237.162109375 572.174804688 c 1
 237.162109375 749.890625 l 1
256.944335938 549.297851562 m 0
 156.154296875 549.297851562 84.6884765625 434.857421875 84.6884765625 288.634765625 c 0
 84.6884765625 142.411132812 156.154296875 23.8740234375 256.944335938 23.8740234375 c 0
 357.734375 23.8740234375 429.200195312 144.458984375 429.200195312 290.682617188 c 0
 429.200195312 436.905273438 357.734375 549.297851562 256.944335938 549.297851562 c 0
EndSplineSet
Validated: 524289
EndChar

StartChar: C
Encoding: 67 67 10
Width: 467
GlyphClass: 2
Flags: MW
HStem: 0.429688 30.4932<116.021 135.559 135.559 220.264> 525.1 29.3301<80.0156 80.0156 80.0156 116.021 116.021 135.559>
VStem: 35.3594 44.6562<30.9229 525.1 30.9229 554.43 30.9229 554.43> 388.043 45.957<214.207 337.746>
LayerCount: 2
Fore
SplineSet
35.359375 554.4296875 m 1
 116.021484375 554.4296875 l 2
 326.577148438 554.4296875 434 414.091796875 434 274.681640625 c 0
 434 137.104492188 329.381835938 0.4296875 116.021484375 0.4296875 c 2
 35.359375 0.4306640625 l 1
 35.359375 554.4296875 l 1
80.015625 525.099609375 m 1
 80.015625 30.9228515625 l 1
 135.55859375 30.9228515625 l 2
 304.96875 30.9228515625 388.04296875 152.844726562 388.04296875 275.569335938 c 0
 388.04296875 399.921875 302.75 525.099609375 135.55859375 525.099609375 c 2
 80.015625 525.099609375 l 1
EndSplineSet
Validated: 524289
EndChar

StartChar: D
Encoding: 68 68 11
Width: 657
GlyphClass: 2
Flags: MW
HStem: -8.37305 22.7852<153.25 201.774> 0.177734 21G<576.355 617 576.355 576.355> 533.704 20G<576.355 617 617 617>
VStem: 40.0977 39.1465<163.997 170.728 163.997 192.703> 303.749 39.1729 576.355 40.6445<0.177734 52.3564 52.3564 52.3564 75.7861 553.704 0.177734 553.704>
LayerCount: 2
Fore
SplineSet
41.3134765625 554.4296875 m 1xbc
 80.5498046875 554.252929688 l 1
 80.5498046875 554.252929688 79.244140625 326.465820312 79.244140625 170.727539062 c 2
 79.244140625 163.997070312 l 2
 79.267578125 70.6943359375 123.12890625 14.412109375 183.370117188 14.412109375 c 0xbc
 223.237304688 14.412109375 270.27734375 38.5 316.533203125 94.837890625 c 1
 305.178710938 130.064453125 303.749023438 150.475585938 303.749023438 183.530273438 c 0
 303.749023438 186.8515625 303.763671875 190.299804688 303.784179688 193.903320312 c 0
 304.857421875 384.9140625 305.036132812 481.385742188 305.036132812 524.538085938 c 0
 305.036132812 546.205078125 304.991210938 554.4296875 304.991210938 554.4296875 c 1
 344.227539062 554.252929688 l 1
 344.227539062 554.252929688 342.680664062 339.639648438 342.680664062 234.305664062 c 0
 342.680664062 211.842773438 342.750976562 194.348632812 342.921875 184.966796875 c 0
 345.139648438 63.005859375 398.25390625 12.291015625 458.659179688 12.291015625 c 0
 498.962890625 12.291015625 542.512695312 33.7587890625 576.35546875 75.7861328125 c 1
 576.35546875 553.704101562 l 1
 617 553.704101562 l 1
 617 0.177734375 l 1
 576.35546875 0.177734375 l 1x7c
 576.35546875 52.3564453125 l 1
 551.309570312 12.6181640625 506.309570312 -10.0361328125 459.833007812 -10.0361328125 c 0
 408.055664062 -10.0361328125 354.446289062 18.080078125 324.555664062 82.01171875 c 1
 293.5078125 29.888671875 231.030273438 -8.373046875 172.518554688 -8.373046875 c 0
 103.5546875 -8.373046875 40.09765625 44.7783203125 40.09765625 191.03515625 c 0
 40.09765625 194.370117188 41.359375 406.2265625 41.359375 524.530273438 c 0
 41.359375 546.203125 41.3134765625 554.4296875 41.3134765625 554.4296875 c 1xbc
EndSplineSet
Validated: 524289
EndChar

StartChar: E
Encoding: 69 69 12
Width: 455
GlyphClass: 2
Flags: MW
HStem: 1.31152 43<165.576 224.206> 534.43 21G
VStem: 39.5898 43.3311<271.424 330.25> 374.574 40.4258<0.889648 142.083 142.083 142.083 174.954 174.954>
LayerCount: 2
Fore
SplineSet
374.57421875 142.083007812 m 1
 360.354492188 58.044921875 266.797851562 1.3115234375 181.614257812 1.3115234375 c 0
 107.240234375 1.3115234375 40.0126953125 44.560546875 39.6435546875 150.646484375 c 0
 39.603515625 161.971679688 39.58984375 210.611328125 39.58984375 270.430664062 c 0
 39.58984375 390.0703125 39.6435546875 554.4296875 39.6435546875 554.4296875 c 1
 82.6318359375 554.255859375 l 1
 82.6318359375 554.255859375 82.9208984375 446.248046875 82.9208984375 328.9453125 c 0
 82.9208984375 213.90234375 82.6298828125 159.328125 82.6298828125 157.614257812 c 0
 82.6298828125 78.275390625 134.592773438 44.3115234375 196.55859375 44.3115234375 c 0
 272.06640625 44.3115234375 358.458007812 94.7421875 374.57421875 174.954101562 c 1
 374.573242188 554.34765625 l 1
 415 554.34765625 l 1
 415 0.8896484375 l 1
 374.57421875 0.8896484375 l 1
 374.57421875 142.083007812 l 1
EndSplineSet
Validated: 524289
EndChar

StartChar: G
Encoding: 71 71 13
Width: 513
GlyphClass: 2
Flags: MW
HStem: -128.852 39.4609<236.431 280.589 236.431 283.066> -3.42969 37.5684 254.453 40.9609<81.3008 431.824 81.3008 478 80.4297 431.824> 522.377 32.0527<198.506 254.058 198.506 255.31>
VStem: 35.4082 45.0215<254.453 369.915> 156.619 4.28516<-64.9458 -33.2676> 352.066 4.7168<-33.2676 -33.2676> 431.824 46.1758<254.453 338.406>
LayerCount: 2
Fore
SplineSet
257.974609375 554.373046875 m 0
 462.42578125 549.41796875 478 322.775390625 478 254.453125 c 1
 80.4296875 254.453125 l 1
 81.6962890625 137.404296875 134.521484375 34.138671875 257.096679688 34.138671875 c 0
 257.395507812 34.138671875 257.694335938 34.1396484375 257.994140625 34.140625 c 0
 372.860351562 34.611328125 448.03515625 96.509765625 448.03515625 96.509765625 c 1
 446.076171875 92.6181640625 426.704101562 62.69921875 424.4765625 58.83203125 c 0
 411.575195312 45.560546875 357.213867188 -3.4365234375 260.29296875 -3.4365234375 c 0
 259.65234375 -3.4365234375 259.010742188 -3.43359375 258.3671875 -3.4296875 c 0
 150.060546875 -2.70703125 36.162109375 61.529296875 35.408203125 278.2109375 c 0
 35.408203125 461.618164062 143.73828125 554.4296875 253.274414062 554.4296875 c 0
 254.840820312 554.4296875 256.408203125 554.411132812 257.974609375 554.373046875 c 0
257.974609375 522.357421875 m 0
 256.903320312 522.37109375 255.838867188 522.376953125 254.780273438 522.376953125 c 0
 96.60546875 522.376953125 81.30078125 374.284179688 81.30078125 295.4140625 c 1
 431.82421875 295.4140625 l 1
 431.82421875 381.3984375 396.055664062 520.639648438 257.974609375 522.357421875 c 0
156.619140625 -33.267578125 m 1
 160.904296875 -33.267578125 l 1
 168.709960938 -70.2197265625 214.087890625 -89.390625 258.7734375 -89.390625 c 0
 302.404296875 -89.390625 345.375 -71.1142578125 352.06640625 -33.267578125 c 1
 356.783203125 -33.267578125 l 1
 357.506835938 -97.3447265625 308.034179688 -128.8515625 258.098632812 -128.8515625 c 0
 207.595703125 -128.8515625 156.619140625 -96.6240234375 156.619140625 -33.267578125 c 1
EndSplineSet
Validated: 524321
EndChar

StartChar: H
Encoding: 72 72 14
Width: 441
GlyphClass: 2
Flags: MW
HStem: -3.43555 31.0498<184.257 277.319 184.257 291.281> 525.413 29.0166<188.926 277.257>
VStem: 35.3164 47.1465<228.387 325.813>
LayerCount: 2
Fore
SplineSet
233.091796875 554.4296875 m 0
 348.587890625 554.4296875 391.491210938 497.391601562 406 481.212890625 c 1
 394.232421875 450.8203125 l 1
 378.598632812 478.065429688 321.422851562 525.413085938 233.091796875 525.413085938 c 0
 144.760742188 525.413085938 82.462890625 464.604492188 82.462890625 277.083007812 c 0
 82.462890625 89.5615234375 135.422851562 27.6142578125 233.091796875 27.6142578125 c 0
 321.545898438 27.6142578125 371.327148438 50.8017578125 405.59765625 93.8828125 c 1
 363.817382812 21.0244140625 349.791015625 -3.435546875 232.771484375 -3.435546875 c 0
 82.4736328125 -3.435546875 35.31640625 179.690429688 35.31640625 277.083007812 c 0
 35.31640625 374.543945312 65.0693359375 554.4296875 233.091796875 554.4296875 c 0
EndSplineSet
Validated: 524289
EndChar

StartChar: I
Encoding: 73 73 15
Width: 465
GlyphClass: 2
Flags: MW
HStem: 0 21G<40.0098 82.2002 40.0098 40.0098> 518.888 34.8223<233.263 289.494>
VStem: 40.0098 42.1904<0 429.431 450.066 554.43> 383.237 41.7627<0.00195312 351.854 0.000976562 381.585 0.000976562 416.372>
LayerCount: 2
Fore
SplineSet
40.009765625 554.4296875 m 1
 82.2001953125 554.4296875 l 1
 82.2001953125 450.06640625 l 1
 116.491210938 507.80859375 195.751953125 553.709960938 270.774414062 553.709960938 c 0
 351.498046875 553.709960938 425 500.567382812 425 351.854492188 c 2
 425 0.0009765625 l 1
 383.237304688 0.001953125 l 1
 383.237304688 381.584960938 l 2
 383.237304688 451.159179688 329.943359375 518.887695312 249.044921875 518.887695312 c 0
 199.975585938 518.887695312 143.485351562 493.969726562 82.2001953125 429.430664062 c 1
 82.2001953125 0 l 1
 40.009765625 0 l 1
 40.009765625 554.4296875 l 1
EndSplineSet
Validated: 524289
EndChar

StartChar: J
Encoding: 74 74 16
Width: 445
GlyphClass: 2
Flags: MW
HStem: 0.241211 41.8398<162.302 219.351> 535.383 21G
VStem: 39.7129 42.2158<265.001 327.21> 365.637 39.3633<-169.217 137.217 137.217 137.217 169.201 554.304 -169.217 554.304>
LayerCount: 2
Fore
SplineSet
365.63671875 137.216796875 m 1
 351.799804688 55.4453125 260.793945312 0.2412109375 177.908203125 0.2412109375 c 0
 105.5390625 0.2412109375 40.125 42.32421875 39.765625 145.548828125 c 0
 39.7265625 156.568359375 39.712890625 205.778320312 39.712890625 266.494140625 c 0
 39.712890625 387.926757812 39.765625 555.3828125 39.765625 555.3828125 c 1
 81.6484375 555.213867188 l 1
 81.6484375 555.213867188 81.9287109375 442.58984375 81.9287109375 323.431640625 c 0
 81.9287109375 206.5703125 81.646484375 154.040039062 81.646484375 152.329101562 c 0
 81.646484375 75.12890625 132.154296875 42.0810546875 192.44921875 42.0810546875 c 0
 265.920898438 42.0810546875 349.955078125 91.15234375 365.63671875 169.201171875 c 1
 365.63671875 554.303710938 l 1
 405 554.303710938 l 1
 405 -169.216796875 l 1
 365.63671875 -169.216796875 l 1
 365.63671875 137.216796875 l 1
EndSplineSet
Validated: 524289
EndChar

StartChar: K
Encoding: 75 75 17
Width: 519
GlyphClass: 2
Flags: MW
HStem: -3.42871 37.5713 254.479 40.9648<81.8818 437.192 81.8818 484 80.998 437.192> 522.431 32.0557<200.687 256.997 200.687 258.266>
VStem: 35.3613 45.6367<254.479 369.953> 437.192 46.8076<254.479 338.44>
LayerCount: 2
Fore
SplineSet
260.966796875 554.4296875 m 0
 468.211914062 549.473632812 484 322.809570312 484 254.479492188 c 1
 80.998046875 254.479492188 l 1
 82.2822265625 137.418945312 135.828125 34.142578125 260.077148438 34.142578125 c 0
 260.379882812 34.142578125 260.68359375 34.142578125 260.987304688 34.1435546875 c 0
 377.421875 34.615234375 453.625 96.5205078125 453.625 96.5205078125 c 1
 451.638671875 92.62890625 432.002929688 62.705078125 429.744140625 58.837890625 c 0
 416.666992188 45.5654296875 361.5625 -3.435546875 263.317382812 -3.435546875 c 0
 262.66796875 -3.435546875 262.017578125 -3.43359375 261.365234375 -3.4287109375 c 0
 151.579101562 -2.7060546875 36.1259765625 61.5361328125 35.361328125 278.240234375 c 0
 35.361328125 461.666015625 145.169921875 554.486328125 256.203125 554.486328125 c 0
 257.791015625 554.486328125 259.37890625 554.467773438 260.966796875 554.4296875 c 0
260.966796875 522.41015625 m 0
 259.881835938 522.423828125 258.801757812 522.430664062 257.729492188 522.430664062 c 0
 97.3935546875 522.430664062 81.8818359375 374.321289062 81.8818359375 295.444335938 c 1
 437.192382812 295.444335938 l 1
 437.192382812 381.436523438 400.934570312 520.692382812 260.966796875 522.41015625 c 0
EndSplineSet
Validated: 524289
EndChar

StartChar: L
Encoding: 76 76 18
Width: 469
GlyphClass: 2
Flags: MW
HStem: 2.88965 39.1123<235.928 236.273 167.035 292.623> 275.028 23.584<183.85 184.136> 535.411 33.9717<193.284 280.138>
VStem: 389.272 44.7275<115.931 161.312 99.293 193.545>
LayerCount: 2
Fore
SplineSet
236.310546875 569.3828125 m 0
 350.493164062 569.3828125 433.998046875 498.444335938 433.998046875 425.650390625 c 0
 433.998046875 347.997070312 386.735351562 301.78515625 300.513671875 286.766601562 c 1
 428.837890625 263.51171875 434 175.708007812 434 146.916992188 c 0
 434 51.6689453125 349.318359375 2.8896484375 235.927734375 2.8896484375 c 0
 138.897460938 2.890625 112.237304688 23.3896484375 57.7138671875 65.3115234375 c 1
 31.9921875 127.354492188 l 1
 31.9921875 127.354492188 97.796875 42.001953125 236.2734375 42.001953125 c 0
 371.991210938 42.005859375 389.272460938 87.5107421875 389.272460938 144.350585938 c 0
 389.272460938 242.739257812 311.793945312 269.870117188 229.249023438 270.856445312 c 0
 228.676757812 270.852539062 184.422851562 275.028320312 183.849609375 275.028320312 c 1
 183.849609375 298.612304688 l 1
 227.919921875 302.806640625 l 2
 363.846679688 315.74609375 389.266601562 365.626953125 389.266601562 423.201171875 c 0
 389.266601562 485.013671875 323.899414062 535.411132812 236.375976562 535.411132812 c 0
 150.19140625 535.411132812 93.2060546875 494.936523438 68.0888671875 447.016601562 c 1
 54.0263671875 496.205078125 l 1
 80.6943359375 518.1796875 122.127929688 569.3828125 236.310546875 569.3828125 c 0
EndSplineSet
Validated: 524321
EndChar

StartChar: M
Encoding: 77 77 19
Width: 504
GlyphClass: 2
Flags: MW
HStem: -6.19727 24.5303<202.935 301.362 202.935 312.03> 527.442 25.5381<252 252> 687.469 34.3232<254.265 270.402>
VStem: 35.2969 46.6328<203.49 346.286 203.49 349.195> 371.279 35.6211<614.46 622.841 601.771 627.757> 420.367 48.6328<203.49 276.5 200.582 346.286>
LayerCount: 2
Fore
SplineSet
104.431640625 591.788085938 m 1
 91.96484375 633.802734375 l 1
 121.588867188 679.560546875 184.19921875 721.055664062 252.1484375 721.778320312 c 0
 252.997070312 721.788085938 253.842773438 721.791992188 254.6875 721.791992188 c 0
 335.329101562 721.791992188 400.883789062 680.739257812 406.37890625 630.563476562 c 0
 406.724609375 627.411132812 406.900390625 624.336914062 406.900390625 621.345703125 c 0
 406.900390625 582.197265625 371.682617188 551.083007812 294.154296875 545.911132812 c 1
 465.7890625 510.306640625 469 278.112304688 469 274.88671875 c 0
 469 126.276367188 371.912109375 -6.197265625 252.1484375 -6.197265625 c 0
 132.384765625 -6.197265625 35.296875 126.276367188 35.296875 274.88671875 c 0
 35.296875 423.50390625 132.387695312 552.979492188 252.1484375 552.98046875 c 1
 332.9375 565.291015625 371.279296875 602.151367188 371.279296875 626.76953125 c 0
 371.279296875 628.745117188 371.064453125 630.681640625 370.642578125 632.563476562 c 0
 360.00390625 679.991210938 286.454101562 687.46875 254.349609375 687.46875 c 0
 253.595703125 687.46875 252.861328125 687.46484375 252.1484375 687.45703125 c 0
 207.872070312 686.969726562 152.883789062 672.780273438 104.431640625 591.788085938 c 1
252.1484375 527.442382812 m 0
 153.720703125 527.442382812 81.9296875 417.68359375 81.9296875 274.887695312 c 0
 81.9296875 132.091796875 153.720703125 18.3330078125 252.1484375 18.3330078125 c 0
 350.576171875 18.3330078125 420.3671875 132.091796875 420.3671875 274.887695312 c 0
 420.3671875 417.68359375 350.576171875 527.442382812 252.1484375 527.442382812 c 0
EndSplineSet
Validated: 524289
EndChar

StartChar: N
Encoding: 78 78 20
Width: 628
GlyphClass: 2
Flags: MW
HStem: -6.19727 19.0859<410 410> 257.776 38.6973<76.3916 228.914 76.3916 228.914> 541.363 19.084<360.165 410.853 351.237 461.54>
VStem: 34.7305 41.6611<0 257.776 0 296.474 296.474 554.25> 228.914 49.8818<257.776 257.776 296.474 296.474> 544.971 48.0293<203.59 277.123 200.593 350.662>
LayerCount: 2
Fore
SplineSet
410.852539062 560.447265625 m 0
 585.654296875 560.446289062 592.999023438 317.888671875 593 277.123046875 c 0
 593 124.0625 534.202148438 -6.197265625 410.852539062 -6.197265625 c 0
 291.62109375 -6.197265625 232.715820312 111.799804688 228.9140625 257.776367188 c 1
 76.3916015625 257.776367188 l 1
 76.3916015625 0 l 1
 34.73046875 0 l 1
 34.73046875 554.25 l 1
 76.3916015625 554.25 l 1
 76.3916015625 296.473632812 l 1
 228.9140625 296.473632812 l 1
 232.715820312 442.44921875 291.62109375 560.447265625 410.852539062 560.447265625 c 0
410.852539062 541.36328125 m 0
 309.477539062 541.36328125 278.795898438 424.197265625 278.795898438 277.125976562 c 0
 278.795898438 130.053710938 309.477539062 12.8876953125 410.852539062 12.888671875 c 0
 512.227539062 12.8876953125 544.970703125 130.053710938 544.970703125 277.125976562 c 0
 544.970703125 424.197265625 512.2265625 541.36328125 410.852539062 541.36328125 c 0
EndSplineSet
Validated: 524321
EndChar

StartChar: O
Encoding: 79 79 21
Width: 489
GlyphClass: 2
InSpiro: 1
Flags: HMW
HStem: -6.19141 31.8789<168.511 227.601> 260.585 34.1631<135.22 403.415 135.22 403.565 135.22 403.415> 530.673 29.7744<160.45 230.353 154.231 301.769>
VStem: 403.565 51.7803<260.585 260.585>
LayerCount: 2
Fore
SplineSet
33 486.256835938 m 1
 49.5908203125 502.825195312 78.2607421875 560.447265625 230.202148438 560.447265625 c 0
 230.50390625 560.447265625 230.806640625 560.447265625 231.109375 560.446289062 c 0
 383.766601562 560.216796875 455.345703125 392.528320312 455.345703125 276.974609375 c 0
 455.345703125 161.624023438 386.248046875 -4.462890625 231.109375 -6.171875 c 0
 229.700195312 -6.1845703125 228.297851562 -6.19140625 226.903320312 -6.19140625 c 0
 110.119140625 -6.19140625 43.9921875 38.158203125 33.4609375 109.924804688 c 1
 84.5849609375 65.212890625 94.78515625 25.6875 231.10546875 25.6875 c 0
 367.45703125 25.6884765625 403.461914062 177.69140625 403.565429688 260.584960938 c 1
 135.219726562 260.584960938 l 1
 135.219726562 294.748046875 l 1
 403.415039062 294.748046875 l 1
 402.379882812 376.1171875 372.428710938 530.672851562 231.109375 530.672851562 c 0
 89.791015625 530.672851562 45.482421875 452.555664062 46.482421875 450.8671875 c 1
 33 486.256835938 l 1
  Spiro
    33 486.257 v
    57.6984 512.822 o
    115.315 544.922 o
    230.202 560.447 o
    230.504 560.447 o
    230.807 560.447 o
    231.109 560.446 o
    356.993 512.618 o
    431.183 401.648 o
    455.346 276.975 o
    431.734 152.804 o
    358.096 42.2752 o
    231.109 -6.17188 o
    229.704 -6.18257 o
    228.299 -6.18917 o
    226.903 -6.19141 o
    127.27 7.93699 o
    62.2942 47.976 o
    33.4609 109.925 v
    77.0881 68.251 o
    130.709 37.5683 o
    231.105 25.6875 o
    336.318 68.0897 o
    389.139 162.949 o
    403.565 260.585 v
    135.22 260.585 v
    135.22 294.748 v
    403.415 294.748 v
    389.717 391.973 o
    338.284 487.667 o
    231.109 530.673 o
    120.295 510.393 o
    62.4652 472.273 o
    46.4824 450.867 v
    0 0 z
  EndSpiro
EndSplineSet
Validated: 524325
EndChar

StartChar: P
Encoding: 80 80 22
Width: 487
GlyphClass: 2
Flags: MW
HStem: 540.388 20G<404.637 404.637>
LayerCount: 2
Fore
SplineSet
404.63671875 560.387695312 m 1
 445.376953125 560.375976562 l 1
 271.432617188 278.014648438 l 1
 305.770507812 223.998046875 457 -6 457 -6 c 1
 403.866210938 -6 l 1
 403.866210938 -6 255.125976562 222.81640625 242.389648438 245.3984375 c 1
 220 204.15625 83.8994140625 -6 83.8994140625 -6 c 1
 47.751953125 -6 l 1
 47.751953125 -6 203.923828125 238.637695312 220.107421875 264.974609375 c 1
 211.735351562 282.547851562 31.0087890625 560.44140625 30.123046875 560.440429688 c 1
 79.0400390625 560.4296875 l 1
 79.0400390625 560.4296875 240.427734375 314.837890625 248.563476562 298.720703125 c 1
 266.674804688 331.362304688 404.63671875 560.387695312 404.63671875 560.387695312 c 1
EndSplineSet
Validated: 524321
EndChar

StartChar: S
Encoding: 83 83 23
Width: 467
GlyphClass: 2
Flags: MW
HStem: -128.606 39.4268<185.581 229.702 185.581 232.177> 0 30.5156<79.7402 115.775> 525.076 29.3535<79.7402 79.7402 79.7402 115.775 115.775 135.328>
VStem: 35.0508 44.6895<30.5156 525.076 30.5156 554.43 30.5156 554.43> 105.838 4.2793<-64.7549 -33.1035> 301.119 4.71094<-33.1035 -33.1035> 388.008 45.9922<213.942 337.577>
LayerCount: 2
Fore
SplineSet
35.05078125 554.4296875 m 1
 115.775390625 554.4296875 l 2
 326.494140625 554.4296875 434 413.981445312 434 274.463867188 c 0
 434 136.778320312 329.30078125 -0.001953125 115.775390625 0 c 2
 35.05078125 0 l 1
 35.05078125 554.4296875 l 1
79.740234375 525.076171875 m 1
 79.740234375 30.515625 l 1
 135.328125 30.515625 l 2
 304.869140625 30.515625 388.0078125 152.532226562 388.0078125 275.352539062 c 0
 388.0078125 399.801757812 302.649414062 525.076171875 135.328125 525.076171875 c 2
 79.740234375 525.076171875 l 1
105.837890625 -33.103515625 m 1
 110.1171875 -33.103515625 l 1
 117.916992188 -70.0244140625 163.256835938 -89.1796875 207.904296875 -89.1796875 c 0
 251.499023438 -89.1796875 294.43359375 -70.91796875 301.119140625 -33.103515625 c 1
 305.830078125 -33.103515625 l 1
 306.552734375 -97.1259765625 257.123046875 -128.606445312 207.23046875 -128.606445312 c 0
 156.770507812 -128.606445312 105.837890625 -96.40625 105.837890625 -33.103515625 c 1
EndSplineSet
Validated: 524321
EndChar

StartChar: T
Encoding: 84 84 24
Width: 479
GlyphClass: 2
Flags: MW
HStem: 0 21G<42.3184 83.4834 42.3184 42.3184 395.835 437 395.835 395.835> 534.432 20G<395.835 395.835>
VStem: 42.3184 41.165<45.5576 554.43> 395.835 41.165<0 504.359 504.359 504.359 0 554.432>
LayerCount: 2
Fore
SplineSet
395.834960938 554.431640625 m 1
 437 554.419921875 l 1
 437 0 l 1
 395.834960938 0 l 1
 395.834960938 504.359375 l 1
 83.4833984375 0 l 1
 42.318359375 0 l 1
 42.318359375 554.4296875 l 1
 83.4833984375 554.4296875 l 1
 83.4833984375 45.5576171875 l 1
 395.834960938 554.431640625 l 1
EndSplineSet
Validated: 524289
EndChar

StartChar: U
Encoding: 85 85 25
Width: 462
GlyphClass: 2
Flags: HMW
HStem: -6.10352 31.5381<174.736 247.584 169.544 298.903> 531.062 29.4727<170.886 264.392>
VStem: 377.093 49.9072<207.928 349.725 207.928 374.711>
LayerCount: 2
Fore
SplineSet
217.638671875 560.53515625 m 0
 395.504882812 560.53515625 427 420.623046875 427 278.826171875 c 0
 427 137.030273438 380.166992188 -6.103515625 217.638671875 -6.103515625 c 0
 131.833984375 -6.103515625 67.0244140625 26.0029296875 35.02734375 92.7451171875 c 1
 82.26171875 48.484375 121.454101562 25.4345703125 217.634765625 25.4345703125 c 0
 277.534179688 25.4345703125 377.092773438 87.0625 377.092773438 278.826171875 c 0
 377.092773438 470.596679688 311.145507812 531.0625 217.638671875 531.0625 c 0
 124.1328125 531.0625 63.607421875 482.969726562 47.05859375 455.295898438 c 1
 34.6015625 486.166015625 l 1
 49.9599609375 502.600585938 95.3759765625 560.53515625 217.638671875 560.53515625 c 0
EndSplineSet
Validated: 524289
EndChar

StartChar: W
Encoding: 87 87 26
Width: 509
GlyphClass: 2
Flags: MW
HStem: 3.89648 22.832<204.385 304.126 204.385 314.937> 546.684 23.8516<204.385 304.126>
VStem: 34.5098 49.2822<216.382 361.083 216.382 364.949> 424.718 49.2822<218.409 363.109>
LayerCount: 2
Fore
SplineSet
254.255859375 570.53515625 m 0
 374.724609375 570.53515625 474 439.325195312 474 288.731445312 c 0
 474 138.138671875 375.6171875 3.896484375 254.255859375 3.896484375 c 0
 132.919921875 3.896484375 34.509765625 136.091796875 34.509765625 288.633789062 c 0
 34.509765625 441.263671875 133.763671875 570.53515625 254.255859375 570.53515625 c 0
254.255859375 546.68359375 m 0
 154.514648438 546.68359375 83.7919921875 433.43359375 83.7919921875 288.732421875 c 0
 83.7919921875 144.03125 154.514648438 26.728515625 254.255859375 26.728515625 c 0
 353.99609375 26.728515625 424.717773438 146.05859375 424.717773438 290.758789062 c 0
 424.717773438 435.459960938 353.99609375 546.68359375 254.255859375 546.68359375 c 0
EndSplineSet
Validated: 524289
EndChar

StartChar: X
Encoding: 88 88 27
Width: 465
GlyphClass: 2
Flags: MW
HStem: -168.186 5.01465 0 21G<40 80.1914 40 40 424.996 424.996> 519.537 34.1865<233.256 289.488>
VStem: 40 40.1914<0 431.712 451.971 554.43> 385.232 39.7637<0.000976562 355.551 0 384.738 0 418.891>
LayerCount: 2
Fore
SplineSet
40 554.4296875 m 1
 80.19140625 554.4296875 l 1
 80.19140625 451.970703125 l 1
 114.482421875 508.659179688 195.744140625 553.723632812 270.768554688 553.723632812 c 0
 351.493164062 553.723632812 424.99609375 501.55078125 424.99609375 355.55078125 c 2
 424.99609375 0 l 2
 425.619140625 -76.4853515625 343.764648438 -148.389648438 259.86328125 -163.170898438 c 1
 201.591796875 -168.185546875 l 1
 305.953125 -158.193359375 385.903320312 -57.89453125 385.232421875 0.0009765625 c 2
 385.232421875 384.73828125 l 2
 385.232421875 453.043945312 329.938476562 519.537109375 249.038085938 519.537109375 c 0
 199.967773438 519.537109375 141.477539062 495.073242188 80.19140625 431.711914062 c 1
 80.19140625 0 l 1
 40 0 l 1
 40 554.4296875 l 1
EndSplineSet
Validated: 524321
EndChar

StartChar: Z
Encoding: 90 90 28
Width: 479
GlyphClass: 2
Flags: MW
HStem: -128.901 39.4443<219.394 263.534 219.394 266.01> 0 21G<42.3203 83.4863 42.3203 42.3203 395.836 437 395.836 395.836> 534.43 20G<395.836 395.836>
VStem: 42.3203 41.166<45.5566 554.428> 139.617 4.28125<-65.0225 -33.3574> 334.982 4.71289<-33.3574 -33.3574> 395.836 41.1641<0 504.357 504.357 504.357 0 554.43>
LayerCount: 2
Fore
SplineSet
395.8359375 554.4296875 m 1
 437 554.41796875 l 1
 437 0 l 1
 395.8359375 0 l 1
 395.8359375 504.357421875 l 1
 83.486328125 0 l 1
 42.3203125 0 l 1
 42.3203125 554.427734375 l 1
 83.486328125 554.427734375 l 1
 83.486328125 45.556640625 l 1
 395.8359375 554.4296875 l 1
139.6171875 -33.357421875 m 1
 143.8984375 -33.357421875 l 1
 151.701171875 -70.294921875 197.060546875 -89.45703125 241.727539062 -89.45703125 c 0
 285.340820312 -89.45703125 328.293945312 -71.1884765625 334.982421875 -33.357421875 c 1
 339.6953125 -33.357421875 l 1
 340.41796875 -97.408203125 290.966796875 -128.901367188 241.053710938 -128.901367188 c 0
 190.572265625 -128.901367188 139.6171875 -96.6875 139.6171875 -33.357421875 c 1
EndSplineSet
Validated: 524321
EndChar

StartChar: zero
Encoding: 48 48 29
Width: 391
GlyphClass: 2
Flags: MW
VStem: 50.043 290.957
LayerCount: 2
Fore
SplineSet
341 94.875 m 1
 282.04296875 78.015625 l 1
 50.04296875 495.030273438 l 1
 105.684570312 474.763671875 l 1
 341 94.875 l 1
EndSplineSet
Validated: 524289
EndChar

StartChar: one
Encoding: 49 49 30
Width: 337
GlyphClass: 2
Flags: MW
HStem: -130.663 21G<187 187>
VStem: 150.156 36.8438<-64.1377 654.502 -130.663 683.479 -130.663 683.479>
LayerCount: 2
Fore
SplineSet
150.15625 683.478515625 m 1
 187 654.501953125 l 1
 187 -130.663085938 l 1
 150.15625 -64.1376953125 l 1
 150.15625 683.478515625 l 1
EndSplineSet
Validated: 524289
EndChar

StartChar: two
Encoding: 50 50 31
Width: 413
GlyphClass: 2
Flags: MW
HStem: -130.664 21G<313 313>
VStem: 100.281 36.8438<118.842 559.283 94.2656 583.859 94.2656 583.859> 276.156 36.8438<-64.1387 654.502 -130.664 683.479 -130.664 683.479>
LayerCount: 2
Fore
SplineSet
276.15625 683.478515625 m 1
 313 654.501953125 l 1
 313 -130.6640625 l 1
 276.15625 -64.138671875 l 1
 276.15625 683.478515625 l 1
100.28125 583.859375 m 1
 137.125 559.283203125 l 1
 137.125 94.265625 l 1
 100.28125 118.841796875 l 1
 100.28125 583.859375 l 1
EndSplineSet
Validated: 524289
EndChar

StartChar: three
Encoding: 51 51 32
Width: 556
GlyphClass: 2
Flags: MW
HStem: -130.663 21G<456 456>
VStem: 99.9199 36.8438<104.505 544.946 79.9287 569.522 79.9287 569.522> 265.682 36.8438<161.185 493.847 142.622 512.408 142.622 512.408> 419.155 36.8447<-64.1377 654.503 -130.663 683.479 -130.663 683.479>
LayerCount: 2
Fore
SplineSet
136.763671875 544.946289062 m 1
 136.763671875 79.9287109375 l 1
 99.919921875 104.504882812 l 1
 99.919921875 569.522460938 l 1
 136.763671875 544.946289062 l 1
302.525390625 493.846679688 m 1
 302.525390625 142.622070312 l 1
 265.681640625 161.184570312 l 1
 265.681640625 512.408203125 l 1
 302.525390625 493.846679688 l 1
419.155273438 -64.1376953125 m 1
 419.155273438 683.478515625 l 1
 456 654.502929688 l 1
 456 -130.663085938 l 1
 419.155273438 -64.1376953125 l 1
EndSplineSet
Validated: 524289
EndChar

StartChar: four
Encoding: 52 52 33
Width: 457
GlyphClass: 2
Flags: MW
VStem: 370.008 39.9922
LayerCount: 2
Fore
SplineSet
370.0078125 608.323242188 m 1
 410 546.515625 l 1
 404.262695312 513.24609375 370.981445312 372.265625 309.15625 234.83984375 c 1
 371.965820312 135.723632812 l 1
 332.127929688 124.331054688 l 1
 291.124023438 203.891601562 l 1
 239.98828125 104.55859375 165.14453125 0.09765625 50.41015625 -54.548828125 c 1
 149.788085938 26.76171875 220.049804688 129.93359375 269.375976562 237.127929688 c 1
 175.360351562 406.1171875 l 1
 212.958007812 392.423828125 l 1
 289.129882812 263.37109375 l 1
 337.150390625 379.717773438 358.581054688 509.758789062 370.0078125 608.323242188 c 1
EndSplineSet
Validated: 524289
EndChar

StartChar: five
Encoding: 53 53 34
Width: 587
GlyphClass: 2
Flags: MW
HStem: 214.924 142.967
LayerCount: 2
Fore
SplineSet
557 357.890625 m 1
 508.68359375 310.157226562 l 1
 49.607421875 214.923828125 l 1
 87.453125 260.469726562 l 1
 557 357.890625 l 1
EndSplineSet
Validated: 524289
EndChar

StartChar: six
Encoding: 54 54 35
Width: 567
GlyphClass: 2
Flags: MW
VStem: 256.689 36.8447<-54.1377 300.942 300.942 300.942 346.288 664.503>
LayerCount: 2
Fore
SplineSet
256.689453125 693.478515625 m 1
 293.534179688 664.502929688 l 1
 293.534179688 346.288085938 l 1
 537 396.802734375 l 1
 488.68359375 349.068359375 l 1
 293.534179688 308.586914062 l 1
 293.534179688 -120.663085938 l 1
 256.689453125 -54.1376953125 l 1
 256.689453125 300.942382812 l 1
 29.607421875 253.8359375 l 1
 67.453125 299.3828125 l 1
 256.689453125 338.64453125 l 1
 256.689453125 693.478515625 l 1
EndSplineSet
Validated: 524289
EndChar

StartChar: seven
Encoding: 55 55 36
Width: 567
GlyphClass: 2
Flags: MW
HStem: 667.365 20G<344.628 344.628>
VStem: 168.752 36.8438<122.727 276.587 276.587 276.587 321.931 563.169> 344.628 36.8438<-60.251 313.07 313.07 313.07 358.421 658.389>
LayerCount: 2
Fore
SplineSet
344.627929688 687.365234375 m 1
 381.471679688 658.388671875 l 1
 381.471679688 358.420898438 l 1
 537 390.688476562 l 1
 488.68359375 342.955078125 l 1
 381.471679688 320.71484375 l 1
 381.471679688 -126.77734375 l 1
 344.627929688 -60.2509765625 l 1
 344.627929688 313.0703125 l 1
 205.595703125 284.23046875 l 1
 205.595703125 98.150390625 l 1
 168.751953125 122.7265625 l 1
 168.751953125 276.586914062 l 1
 29.607421875 247.72265625 l 1
 67.4541015625 293.268554688 l 1
 168.751953125 314.287109375 l 1
 168.751953125 587.745117188 l 1
 205.595703125 563.168945312 l 1
 205.595703125 321.930664062 l 1
 344.627929688 350.776367188 l 1
 344.627929688 687.365234375 l 1
EndSplineSet
Validated: 524289
EndChar

StartChar: eight
Encoding: 56 56 37
Width: 706
GlyphClass: 2
Flags: MW
HStem: -130.548 21G<518.779 518.779>
VStem: 162.697 36.8438<104.62 249.984 249.984 249.984 80.0439 293.906 293.906 545.062> 320.268 36.8447<161.3 281.91 281.91 281.91 142.738 325.834 325.834 493.962> 481.936 36.8438<-64.0215 313.836 313.836 313.836 354.862 654.618>
LayerCount: 2
Fore
SplineSet
481.935546875 683.59375 m 1
 518.779296875 654.618164062 l 1
 518.779296875 354.862304688 l 1
 676 384.083984375 l 1
 626.221679688 337.875976562 l 1
 518.779296875 318.896484375 l 1
 518.779296875 -130.547851562 l 1
 481.935546875 -64.021484375 l 1
 481.935546875 313.8359375 l 1
 357.112304688 289.506835938 l 1
 357.112304688 142.73828125 l 1
 320.267578125 161.299804688 l 1
 320.267578125 281.91015625 l 1
 199.541015625 257.578125 l 1
 199.541015625 80.0439453125 l 1
 162.697265625 104.620117188 l 1
 162.697265625 249.984375 l 1
 30.052734375 218.114257812 l 1
 69.296875 262.459960938 l 1
 162.697265625 284.501953125 l 1
 162.697265625 569.638671875 l 1
 199.541015625 545.0625 l 1
 199.541015625 293.90625 l 1
 320.267578125 317.875976562 l 1
 320.267578125 512.524414062 l 1
 357.112304688 493.961914062 l 1
 357.112304688 325.833984375 l 1
 481.935546875 349.801757812 l 1
 481.935546875 683.59375 l 1
EndSplineSet
Validated: 524289
EndChar

StartChar: nine
Encoding: 57 57 38
Width: 461
GlyphClass: 2
Flags: W
LayerCount: 2
Fore
SplineSet
380.211914062 579.79296875 m 1
 411.185546875 544.021484375 l 1
 405.448242188 510.752929688 370.573242188 379.8359375 308.748046875 242.41015625 c 1
 371.557617188 143.293945312 l 1
 331.719726562 131.90234375 l 1
 290.715820312 211.461914062 l 1
 239.579101562 112.12890625 164.735351562 7.66796875 50 -46.978515625 c 1
 149.377929688 34.33203125 219.640625 137.50390625 268.967773438 244.698242188 c 1
 174.951171875 413.6875 l 1
 212.548828125 399.994140625 l 1
 288.721679688 270.94140625 l 1
 331.353515625 374.232421875 358.954101562 457.842773438 371.27734375 543.556640625 c 1
 324.400390625 531.487304688 152.752929688 494.682617188 55.5224609375 472.549804688 c 1
 111.2890625 517.2734375 l 1
 380.211914062 579.79296875 l 1
EndSplineSet
Validated: 524289
EndChar
